<svg width="149" height="41" viewBox="0 0 149 41" fill="none" xmlns="http://www.w3.org/2000/svg">
<g clip-path="url(#clip0_2_1587)">
<path d="M139.544 0.319336H9.53983C9.17892 0.319336 8.82359 0.319336 8.46361 0.321196C8.16223 0.323057 7.86364 0.328638 7.5604 0.334219C6.89996 0.34166 6.24139 0.399332 5.58933 0.508164C4.93913 0.617926 4.30939 0.826288 3.72058 1.12488C3.1327 1.42626 2.59599 1.81787 2.12996 2.28482C1.66022 2.75085 1.26861 3.28942 0.970948 3.88009C0.672357 4.46983 0.464926 5.10143 0.357024 5.75349C0.247262 6.40462 0.18773 7.0632 0.180288 7.72363C0.170986 8.02594 0.170986 8.32825 0.165405 8.63056V31.3783C0.170056 31.6843 0.170986 31.9801 0.180288 32.2852C0.18773 32.9457 0.247262 33.6052 0.357024 34.2563C0.464926 34.9084 0.671427 35.54 0.970948 36.1297C1.26861 36.7185 1.65929 37.2552 2.12903 37.7194C2.59412 38.1882 3.13177 38.5798 3.72058 38.8793C4.30939 39.1788 4.93913 39.3881 5.59026 39.4998C6.24139 39.6067 6.89996 39.6653 7.5604 39.6737C7.86364 39.6802 8.16223 39.6839 8.46268 39.6839C8.82266 39.6867 9.17892 39.6867 9.53983 39.6867H139.543C139.896 39.6867 140.255 39.6867 140.609 39.6839C140.908 39.6839 141.216 39.6802 141.516 39.6746C142.174 39.6653 142.832 39.6077 143.482 39.4998C144.134 39.3872 144.767 39.1779 145.358 38.8793C145.946 38.5798 146.484 38.1882 146.948 37.7194C147.416 37.2543 147.808 36.7176 148.11 36.1297C148.408 35.54 148.612 34.9084 148.718 34.2563C148.828 33.6052 148.889 32.9457 148.901 32.2852C148.905 31.9801 148.905 31.6843 148.905 31.3783C148.913 31.0211 148.913 30.6648 148.913 30.3021V9.70493C148.913 9.34401 148.913 8.98682 148.905 8.63056C148.905 8.32825 148.905 8.02594 148.901 7.72363C148.889 7.0632 148.828 6.40462 148.718 5.75349C148.611 5.10236 148.407 4.46983 148.11 3.88009C147.503 2.69596 146.541 1.73229 145.358 1.12488C144.767 0.827218 144.134 0.618856 143.482 0.507234C142.832 0.399332 142.174 0.34073 141.516 0.333289C141.216 0.328638 140.908 0.323987 140.609 0.321196C140.255 0.319336 139.895 0.319336 139.544 0.319336Z" fill="#A6A6A6"/>
<path d="M8.46822 38.8263C8.1687 38.8263 7.87662 38.8226 7.57896 38.8152C6.96317 38.8077 6.34925 38.7538 5.74184 38.6552C5.17442 38.5575 4.62561 38.3761 4.11215 38.1157C3.60427 37.858 3.1401 37.5203 2.73919 37.1157C2.33177 36.7157 1.99318 36.2506 1.73552 35.7409C1.47507 35.2274 1.29554 34.6777 1.20159 34.1103C1.1002 33.5001 1.04625 32.8824 1.03788 32.2648C1.0323 32.0574 1.02393 31.3662 1.02393 31.3662V8.63058C1.02393 8.63058 1.03323 7.94968 1.03788 7.74969C1.04532 7.13205 1.1002 6.51627 1.20066 5.90792C1.29461 5.33772 1.47507 4.78612 1.73552 4.27079C1.99132 3.76198 2.32898 3.29782 2.73361 2.89598C3.13731 2.49041 3.60241 2.1509 4.11215 1.88951C4.62375 1.62999 5.17256 1.44953 5.73719 1.35373C6.34739 1.2542 6.96503 1.20024 7.58175 1.19373L8.46915 1.18164H140.604L141.502 1.19373C142.114 1.20117 142.725 1.25513 143.33 1.35373C143.901 1.45139 144.454 1.63278 144.972 1.89323C145.993 2.41972 146.823 3.25224 147.346 4.27451C147.603 4.78612 147.78 5.33307 147.873 5.89769C147.975 6.51161 148.032 7.13298 148.044 7.75528C148.047 8.03433 148.047 8.33292 148.047 8.63151C148.054 8.99987 148.054 9.35148 148.054 9.70588V30.304C148.054 30.6611 148.054 31.0109 148.047 31.3616C148.047 31.6816 148.047 31.9755 148.043 32.2769C148.031 32.888 147.975 33.4982 147.875 34.101C147.782 34.673 147.604 35.2265 147.343 35.7446C147.085 36.2488 146.748 36.7092 146.345 37.1083C145.943 37.5157 145.479 37.8552 144.969 38.1147C144.453 38.377 143.9 38.5594 143.33 38.6561C142.721 38.7556 142.107 38.8087 141.492 38.8161C141.203 38.8235 140.902 38.8273 140.609 38.8273L139.544 38.8291L8.46822 38.8263Z" fill="black"/>
<path d="M24.9707 20.4859C24.9912 18.8116 25.8284 17.2656 27.1883 16.3894C26.326 15.0983 24.9344 14.3086 23.4322 14.2593C21.8518 14.0853 20.3207 15.2518 19.5152 15.2518C18.6938 15.2518 17.4548 14.2769 16.12 14.3058C14.361 14.3653 12.7648 15.3876 11.909 16.9977C10.0896 20.3027 11.4467 25.1583 13.1899 27.8298C14.0624 29.1376 15.0819 30.5989 16.4158 30.5469C17.7208 30.4901 18.2083 29.6743 19.784 29.6743C21.3448 29.6743 21.8025 30.5469 23.1634 30.5143C24.5642 30.4901 25.446 29.1999 26.2879 27.88C26.9148 26.948 27.3966 25.9173 27.7166 24.8281C26.0535 24.0904 24.9717 22.3807 24.9698 20.4869L24.9707 20.4859ZM22.3997 12.5031C23.1634 11.5413 23.5401 10.306 23.4489 9.05859C22.2825 9.18696 21.2044 9.77112 20.4305 10.6957C19.6659 11.6082 19.2789 12.8017 19.3542 14.0137C20.5365 14.0258 21.6593 13.4695 22.3997 12.5031Z" fill="white"/>
<path d="M35.3107 24.2328C35.3173 23.9174 35.5675 23.6672 35.8707 23.6709C36.174 23.6747 36.4177 23.9323 36.4158 24.2477C36.4139 24.5621 36.1674 24.8169 35.8633 24.8169C35.7144 24.8169 35.5721 24.7555 35.4679 24.6458C35.3638 24.536 35.307 24.3863 35.3089 24.2328H35.3107ZM35.401 31.5617V25.3918H36.3256V31.5617H35.401ZM37.8362 26.9052H38.6892V27.6447H38.7562C38.9859 27.0996 39.5245 26.7675 40.0956 26.815C40.5384 26.7806 40.9719 26.9564 41.2742 27.294C41.5765 27.6307 41.7151 28.0921 41.65 28.547V31.5608H40.7635V28.7777C40.7635 28.0289 40.45 27.6577 39.7952 27.6577C39.4947 27.6428 39.2036 27.7647 38.9971 27.9917C38.7915 28.2186 38.6901 28.5274 38.7227 28.8372V31.5617H37.8362V26.9052ZM42.7978 29.2307C42.7978 27.7591 43.5271 26.8271 44.6619 26.8271C45.234 26.8001 45.7707 27.1182 46.0386 27.6447H46.1046V25.0867H46.9911V31.5608H46.1418V30.8259H46.0712C45.7837 31.3468 45.2405 31.6603 44.6619 31.638C43.5196 31.638 42.7978 30.7059 42.7978 29.2307ZM43.7131 29.2307C43.7131 30.2185 44.1624 30.8129 44.9131 30.8129C45.66 30.8129 46.1214 30.2102 46.1214 29.2344C46.1214 28.2642 45.6544 27.6531 44.9121 27.6531C44.1671 27.6531 43.7131 28.2512 43.7131 29.2307ZM48.3287 25.5276C48.3148 25.2839 48.4459 25.0569 48.6589 24.9537C48.8729 24.8504 49.124 24.8923 49.2952 25.0597C49.4663 25.2271 49.5221 25.4857 49.4347 25.7127C49.3491 25.9387 49.137 26.0876 48.9026 26.0885C48.7538 26.0959 48.6087 26.0411 48.4999 25.935C48.392 25.829 48.3296 25.682 48.3287 25.5276ZM48.4599 26.9043H49.3436V31.5617H48.4599V26.9043ZM50.7732 26.9052H51.6262V27.6187H51.6913C51.8876 27.1108 52.3778 26.7908 52.9043 26.828C53.0373 26.8261 53.1694 26.8382 53.2996 26.8652V27.7731C53.1369 27.7368 52.9713 27.7182 52.8048 27.7173C52.5099 27.6893 52.2169 27.7926 51.9983 28.001C51.7797 28.2093 51.6569 28.5033 51.6588 28.8121V31.5617H50.7732V26.9052ZM54.2289 25.5276C54.2159 25.2839 54.347 25.0569 54.56 24.9537C54.7731 24.8504 55.0251 24.8923 55.1963 25.0597C55.3674 25.2271 55.4233 25.4857 55.3358 25.7127C55.2493 25.9387 55.0382 26.0876 54.8028 26.0885C54.654 26.0959 54.5098 26.0411 54.401 25.935C54.2931 25.829 54.2308 25.682 54.2298 25.5276H54.2289ZM54.361 26.9043H55.2447V31.5617H54.361V26.9043ZM56.6734 26.9052H57.5264V27.6447H57.5934C57.8231 27.0996 58.3617 26.7675 58.9329 26.815C59.3756 26.7806 59.8091 26.9564 60.1114 27.294C60.4137 27.6307 60.5523 28.0921 60.4872 28.547V31.5608H59.6007V28.7777C59.6007 28.0289 59.2873 27.6577 58.6324 27.6577C58.332 27.6428 58.0408 27.7647 57.8343 27.9917C57.6287 28.2186 57.5273 28.5274 57.5599 28.8372V31.5617H56.6734V26.9052Z" fill="white"/>
<path d="M40.9811 17.6692H36.3256L35.2075 21.0932H33.2355L37.6436 8.42409H39.6928L44.1029 21.0932H42.0983L40.9821 17.6702L40.9811 17.6692ZM36.8074 16.0888H40.4984L38.6789 10.5319H38.6278L36.8074 16.0888ZM53.6289 16.4758C53.6289 19.3464 52.1471 21.19 49.9119 21.19C48.7566 21.2532 47.6683 20.6254 47.1102 19.5742H47.0674V24.1489H45.2395V11.8574H47.0088V13.3932H47.0422C47.6255 12.3486 48.7157 11.7216 49.8784 11.7607C52.1387 11.7607 53.6289 13.6136 53.6289 16.4758ZM51.7499 16.4758C51.7499 14.6061 50.8179 13.3764 49.3966 13.3764C47.9994 13.3764 47.0599 14.6322 47.0599 16.4758C47.0599 18.3362 47.9994 19.5826 49.3966 19.5826C50.8179 19.5826 51.7499 18.3631 51.7499 16.4758ZM63.4303 16.4758C63.4303 19.3464 61.9494 21.19 59.7142 21.19C58.5589 21.2532 57.4706 20.6254 56.9115 19.5742H56.8697V24.1489H55.0419V11.8574H56.8111V13.3932H56.8446C57.4278 12.3486 58.517 11.7216 59.6807 11.7607C61.9411 11.7607 63.4303 13.6136 63.4303 16.4758ZM61.5513 16.4758C61.5513 14.6061 60.6202 13.3764 59.1979 13.3764C57.8017 13.3764 56.8622 14.6322 56.8622 16.4758C56.8622 18.3362 57.8017 19.5826 59.1979 19.5826C60.6202 19.5826 61.5513 18.3631 61.5513 16.4758ZM69.9081 17.5632C70.0439 18.8199 71.2206 19.6449 72.8289 19.6449C74.3693 19.6449 75.4781 18.8199 75.4781 17.6869C75.4781 16.7037 74.8093 16.1149 73.227 15.7112L71.6429 15.3158C69.4012 14.754 68.3594 13.6666 68.3594 11.9011C68.3594 9.71519 70.1955 8.21387 72.8038 8.21387C75.3851 8.21387 77.1543 9.71519 77.2138 11.9011H75.3683C75.2576 10.6361 74.2502 9.87332 72.7777 9.87332C71.3053 9.87332 70.2979 10.6454 70.2979 11.769C70.2979 12.6648 70.9415 13.1922 72.5154 13.5959L73.8614 13.9382C76.3673 14.5522 77.4091 15.5968 77.4091 17.4497C77.4091 19.8207 75.5888 21.3044 72.6931 21.3044C69.9844 21.3044 68.1556 19.8552 68.0375 17.5641H69.9081V17.5632ZM81.3541 9.67147V11.8574H83.047V13.3587H81.3541V18.4506C81.3541 19.2412 81.6936 19.6105 82.4377 19.6105C82.6387 19.6068 82.8396 19.5919 83.0386 19.5659V21.0588C82.7038 21.1239 82.3643 21.1528 82.0238 21.1463C80.2202 21.1463 79.5169 20.444 79.5169 18.6534V13.3587H78.2221V11.8574H79.5179V9.67147H81.3541ZM84.0284 16.4758C84.0284 13.5699 85.6785 11.743 88.2514 11.743C90.8345 11.743 92.4772 13.5699 92.4772 16.4758C92.4772 19.3901 90.8429 21.2086 88.2523 21.2086C85.6627 21.2086 84.0284 19.3901 84.0284 16.4758ZM90.6141 16.4758C90.6141 14.4824 89.7332 13.3057 88.2514 13.3057C86.7705 13.3057 85.8906 14.4908 85.8906 16.4758C85.8906 18.4776 86.7706 19.6449 88.2523 19.6449C89.7332 19.6449 90.6141 18.4776 90.6141 16.4758ZM93.9842 11.8574H95.7273V13.4294H95.7701C96.0129 12.4174 96.9068 11.7207 97.9123 11.7607C98.1226 11.7597 98.3328 11.783 98.5383 11.8314V13.6043C98.2723 13.5206 97.9951 13.4815 97.717 13.4899C97.1793 13.4676 96.6594 13.6899 96.2938 14.0982C95.9273 14.5066 95.7515 15.061 95.812 15.6144V21.0932H93.9842V11.8574ZM106.967 18.3808C106.721 20.0579 105.146 21.2086 103.132 21.2086C100.541 21.2086 98.9328 19.4077 98.9328 16.5204C98.9328 13.6229 100.549 11.743 103.055 11.743C105.519 11.743 107.068 13.4992 107.068 16.2991V16.9493H100.778V17.0637C100.72 17.752 100.948 18.432 101.407 18.9333C101.866 19.4329 102.509 19.7054 103.174 19.6803C104.062 19.7659 104.898 19.2375 105.23 18.3808H106.967ZM100.788 15.6237H105.239C105.273 15.0061 105.056 14.4015 104.641 13.9568C104.226 13.5122 103.652 13.2666 103.055 13.2797C102.454 13.2759 101.876 13.5215 101.45 13.9615C101.025 14.4024 100.786 15.0005 100.788 15.6237ZM108.296 13.0601L109.295 8.42502H111.073L109.862 13.0601H108.296ZM110.993 16.4758C110.993 13.6229 112.508 11.7597 114.717 11.7597C115.873 11.7011 116.961 12.3365 117.51 13.3932H117.545V8.42502H119.382V21.0942H117.603V19.5222H117.57C117.017 20.6021 115.911 21.2523 114.734 21.19C112.508 21.19 110.993 19.3296 110.993 16.4758ZM112.862 16.4758C112.862 18.3715 113.794 19.5826 115.216 19.5826C116.622 19.5826 117.562 18.3538 117.562 16.4758C117.562 14.6136 116.622 13.3764 115.217 13.3764C113.794 13.3764 112.862 14.5968 112.862 16.4758ZM120.992 18.4683C120.992 16.8534 122.186 15.8777 124.302 15.7465L126.74 15.6061V14.9038C126.74 13.8768 126.089 13.2964 124.98 13.2964C124.13 13.1792 123.328 13.7364 123.108 14.5968H121.399C121.45 12.9281 122.947 11.743 125.03 11.743C127.155 11.743 128.56 12.9457 128.56 14.7633V21.0932H126.808V19.5742H126.766C126.194 20.6235 125.117 21.2672 123.955 21.2523C123.198 21.3286 122.444 21.0709 121.88 20.5407C121.316 20.0105 120.993 19.2571 120.992 18.4683ZM126.74 17.6348V16.9232L124.547 17.0637C123.455 17.1344 122.838 17.6255 122.838 18.4152C122.838 19.2245 123.481 19.751 124.464 19.751C125.038 19.791 125.603 19.5891 126.032 19.191C126.46 18.792 126.716 18.2311 126.74 17.6348ZM130.423 11.8574H132.166V13.4294H132.208C132.716 12.3206 133.832 11.6528 135.011 11.7523C136.976 11.7523 138.101 13.0601 138.101 15.1754V21.0932H136.264V15.5447C136.264 14.1578 135.645 13.3857 134.36 13.3857C133.761 13.3699 133.185 13.6238 132.781 14.0815C132.377 14.5391 132.183 15.1568 132.251 15.7735V21.0942H130.423V11.8574Z" fill="white"/>
</g>
<defs>
<clipPath id="clip0_2_1587">
<rect width="148.83" height="39.9981" fill="white" transform="translate(0.165405 0.319336)"/>
</clipPath>
</defs>
</svg>
