<svg width="320" height="143" viewBox="0 0 320 143" fill="none" xmlns="http://www.w3.org/2000/svg">
<g clip-path="url(#clip0_2_1523)">
<path fill-rule="evenodd" clip-rule="evenodd" d="M131.558 129.858H166.219C169.411 129.858 171.952 132.393 171.952 135.579V140.001C171.952 140.717 171.366 141.302 170.649 141.302H127.062C126.345 141.302 125.759 140.717 125.759 140.001V135.58C125.824 132.458 128.365 129.856 131.558 129.856V129.858Z" fill="#FFCB03"/>
<path d="M142.634 114.576H154.361V131.548H142.634V114.576Z" fill="#FFCB04"/>
<path d="M60.9976 6.37256H238.667C244.27 6.37256 248.831 10.9238 248.831 16.5171V106.122C248.831 111.715 244.27 116.267 238.667 116.267H60.9976C55.3945 116.267 50.8335 111.715 50.8335 106.122V16.5163C50.8335 10.9246 55.3945 6.37256 60.9976 6.37256Z" fill="black"/>
<path d="M238.667 122.379H60.9975C52.0066 122.379 44.7092 115.096 44.7092 106.123V16.5165C44.7092 7.54351 52.0066 0.260742 60.9975 0.260742H238.667C247.659 0.260742 254.955 7.54432 254.955 16.5173V106.123C254.955 115.097 247.659 122.379 238.667 122.379ZM60.9975 12.4855C58.7822 12.4855 56.9576 14.306 56.9576 16.5165V106.123C56.9576 108.334 58.7822 110.154 60.9975 110.154H238.667C240.882 110.154 242.707 108.334 242.707 106.123V16.5165C242.707 14.306 240.883 12.4855 238.667 12.4855H60.9975Z" fill="#FFCB04"/>
<path d="M198.86 51.8252H297.825C303.429 51.8252 307.99 56.3764 307.99 61.9698V124.199C307.99 129.792 303.429 134.344 297.825 134.344H198.86C193.257 134.344 188.696 129.792 188.696 124.199V61.9698C188.696 56.3764 193.257 51.8252 198.86 51.8252Z" fill="black"/>
<path d="M297.825 140.456H198.86C189.869 140.456 182.571 133.173 182.571 124.2V61.9699C182.571 52.9961 189.869 45.7134 198.86 45.7134H297.825C306.816 45.7134 314.114 52.9961 314.114 61.9699V124.2C314.114 133.173 306.816 140.456 297.825 140.456ZM198.86 57.9382C196.644 57.9382 194.82 59.7587 194.82 61.9699V124.2C194.82 126.41 196.643 128.231 198.86 128.231H297.825C300.04 128.231 301.864 126.41 301.864 124.2V61.9699C301.864 59.7587 300.041 57.9382 297.826 57.9382H198.86Z" fill="#FFCB04"/>
<path fill-rule="evenodd" clip-rule="evenodd" d="M316.068 141.302H180.552C178.793 141.302 177.36 139.091 177.36 136.425V135.45C177.36 133.304 178.467 131.548 179.9 131.548H316.72C318.153 131.548 319.261 133.304 319.261 135.45V136.425C319.261 139.091 317.828 141.302 316.069 141.302H316.068Z" fill="#FFCB04"/>
<mask id="mask0_2_1523" style="mask-type:luminance" maskUnits="userSpaceOnUse" x="177" y="131" width="143" height="11">
<path d="M316.068 141.302H180.552C178.793 141.302 177.36 139.091 177.36 136.425V135.45C177.36 133.304 178.467 131.548 179.9 131.548H316.72C318.153 131.548 319.261 133.304 319.261 135.45V136.425C319.261 139.091 317.828 141.302 316.069 141.302H316.068Z" fill="#FFCB04"/>
</mask>
<g mask="url(#mask0_2_1523)">
<path d="M-447.71 -1154.34H773.241V627.177H-447.71V-1154.34Z" fill="#FFCB04"/>
</g>
<path d="M242.446 134.345H254.305C254.891 134.345 255.347 134.8 255.347 135.385C255.347 135.97 254.891 136.425 254.305 136.425H242.446C241.86 136.425 241.404 135.969 241.404 135.385C241.339 134.865 241.86 134.345 242.446 134.345Z" fill="black"/>
<mask id="mask1_2_1523" style="mask-type:luminance" maskUnits="userSpaceOnUse" x="241" y="134" width="15" height="3">
<path d="M242.446 134.345H254.305C254.891 134.345 255.347 134.8 255.347 135.385C255.347 135.97 254.891 136.425 254.305 136.425H242.446C241.86 136.425 241.404 135.969 241.404 135.385C241.339 134.865 241.86 134.345 242.446 134.345Z" fill="white"/>
</mask>
<g mask="url(#mask1_2_1523)">
<path d="M-447.711 -699.094H773.24V452.842H-447.711V-699.094Z" fill="white"/>
</g>
<path d="M58.2611 135.385H15.0001C10.1143 135.385 6.07434 131.418 6.07434 126.476V57.9394C6.07434 53.0625 10.0483 49.0308 15.0001 49.0308H58.2611C63.1478 49.0308 67.1869 52.9966 67.1869 57.9386V126.476C67.1869 131.353 63.2129 135.385 58.2611 135.385Z" fill="black"/>
<path d="M58.2611 141.433H15.0001C6.72566 141.433 0.0152588 134.734 0.0152588 126.476V57.9392C0.0152588 49.6795 6.72566 42.9829 15.0001 42.9829H58.2611C66.5355 42.9829 73.2467 49.6803 73.2467 57.9392V126.476C73.3119 134.734 66.5355 141.433 58.2611 141.433ZM15.0001 55.1426C13.4369 55.1426 12.1993 56.3785 12.1993 57.9384V126.476C12.1993 128.037 13.4369 129.272 15.0001 129.272H58.2611C59.8243 129.272 61.0626 128.037 61.0626 126.476V57.9392C61.0626 56.3785 59.8251 55.1426 58.2619 55.1426H14.9993H15.0001Z" fill="#FFCB04"/>
<path fill-rule="evenodd" clip-rule="evenodd" d="M32.7856 122.834H39.7573C40.083 122.834 40.2784 123.095 40.2784 123.354C40.2784 123.68 40.0179 123.874 39.7573 123.874H32.7856C32.4599 123.874 32.2645 123.614 32.2645 123.353C32.2645 123.094 32.4599 122.834 32.7856 122.834Z" fill="#FFCB04"/>
<path d="M39.7574 125.37H32.7864C31.6784 125.37 30.7665 124.46 30.7665 123.354C30.7665 122.249 31.6784 121.339 32.7856 121.339H39.7574C40.8646 121.339 41.7765 122.25 41.7765 123.355C41.7765 124.526 40.8646 125.37 39.7574 125.37Z" fill="#FFCB04"/>
<path d="M90.2517 75.9507H111.881C115.073 75.9507 117.614 78.4868 117.614 81.6727V131.158C117.614 134.344 115.074 136.88 111.881 136.88H90.2517C87.0593 136.88 84.5183 134.344 84.5183 131.157V81.6727C84.5183 78.4868 87.0585 75.9507 90.2517 75.9507Z" fill="black"/>
<path d="M111.817 141.431H90.1865C84.5182 141.431 79.8921 136.815 79.8921 131.157V81.6728C79.8921 76.0159 84.5182 71.3979 90.1865 71.3979H111.816C117.484 71.3979 122.11 76.0159 122.11 81.6728V131.158C122.175 136.815 117.549 141.431 111.816 141.431H111.817ZM90.2516 80.502C89.6003 80.502 89.0792 81.0231 89.0792 81.6728V131.158C89.0792 131.808 89.6003 132.328 90.2516 132.328H111.881C112.532 132.328 113.053 131.808 113.053 131.157V81.6728C113.053 81.0223 112.532 80.502 111.881 80.502H90.2516Z" fill="#FFCB04"/>
<path fill-rule="evenodd" clip-rule="evenodd" d="M97.6776 126.476H104.584C104.91 126.476 105.105 126.736 105.105 126.996C105.105 127.321 104.845 127.517 104.584 127.517H97.6776C97.3519 127.517 97.1565 127.256 97.1565 126.996C97.1565 126.67 97.3519 126.476 97.6776 126.476Z" fill="#FFCB04"/>
<path d="M104.584 129.012H97.6784C96.5703 129.012 95.6584 128.101 95.6584 126.996C95.6584 125.891 96.5703 124.98 97.6776 124.98H104.583C105.691 124.98 106.603 125.891 106.603 126.996C106.603 128.101 105.691 129.012 104.584 129.012Z" fill="#FFCB04"/>
<path d="M242.859 134.338H254.63C255.212 134.338 255.665 134.872 255.665 135.56C255.665 136.247 255.212 136.781 254.63 136.781H242.859C242.277 136.781 241.824 136.247 241.824 135.56C241.824 134.872 242.277 134.338 242.859 134.338Z" fill="black"/>
</g>
<defs>
<clipPath id="clip0_2_1523">
<rect width="319.969" height="142.48" fill="white" transform="translate(0.0152588)"/>
</clipPath>
</defs>
</svg>
