<svg width="29" height="29" viewBox="0 0 29 29" fill="none" xmlns="http://www.w3.org/2000/svg">
<g clip-path="url(#clip0_2_1613)">
<path d="M11.8234 28.0278V18.5078H7.88636V14.0278H11.8234V10.6128C11.8234 6.72883 14.1364 4.58283 17.6774 4.58283C19.3744 4.58283 21.1474 4.88583 21.1474 4.88583V8.69783H19.1934C17.2674 8.69783 16.6674 9.89283 16.6674 11.1178V14.0278H20.9664L20.2784 18.5078H16.6674V28.0278H25.2454C26.9014 28.0278 28.2454 26.6838 28.2454 25.0278V3.02783C28.2454 1.37183 26.9014 0.027832 25.2454 0.027832H3.24536C1.58936 0.027832 0.245361 1.37183 0.245361 3.02783V25.0278C0.245361 26.6838 1.58936 28.0278 3.24536 28.0278H11.8234Z" fill="white"/>
</g>
<defs>
<clipPath id="clip0_2_1613">
<rect width="28" height="28" fill="white" transform="translate(0.245361 0.027832)"/>
</clipPath>
</defs>
</svg>
