<svg width="29" height="29" viewBox="0 0 29 29" fill="none" xmlns="http://www.w3.org/2000/svg">
<g clip-path="url(#clip0_2_1606)">
<path d="M25.2454 28.0278C26.9014 28.0278 28.2454 26.6838 28.2454 25.0278V3.02783C28.2454 1.37183 26.9014 0.027832 25.2454 0.027832H3.24536C1.58936 0.027832 0.245361 1.37183 0.245361 3.02783V25.0278C0.245361 26.6838 1.58936 28.0278 3.24536 28.0278H25.2454ZM14.6594 24.0248H13.8354C12.3284 24.0218 10.8784 23.9988 10.1224 23.9558C8.52036 23.8758 7.10636 23.5088 5.93436 22.3408C4.76436 21.1708 4.39536 19.7508 4.31936 18.1528C4.22636 16.5018 4.22636 11.5528 4.31936 9.90283C4.39936 8.30083 4.76136 6.88183 5.93436 5.71583C7.10836 4.54783 8.52636 4.18083 10.1224 4.10383C10.8784 4.06183 12.3284 4.03883 13.8354 4.03483H14.6594C16.1664 4.03883 17.6154 4.06183 18.3724 4.10483C19.9744 4.18483 21.3924 4.55083 22.5594 5.71983C23.7264 6.88883 24.0994 8.30883 24.1754 9.90983C24.2184 10.6648 24.2414 12.1118 24.2454 13.6168V14.4408C24.2414 15.9468 24.2184 17.3958 24.1754 18.1528C24.0954 19.7548 23.7294 21.1738 22.5594 22.3408C21.3904 23.5068 19.9724 23.8798 18.3724 23.9558C17.6154 23.9988 16.1664 24.0208 14.6594 24.0248ZM20.1414 21.8248C21.0104 21.4818 21.6994 20.7918 22.0414 19.9238C22.5644 18.6108 22.4444 15.4828 22.4444 14.0278C22.4444 12.5728 22.5644 9.44883 22.0424 8.13183H22.0394C21.6974 7.26283 21.0074 6.57383 20.1394 6.23183C18.8254 5.71183 15.7014 5.82783 14.2454 5.82783C12.7894 5.82783 9.66736 5.70783 8.35136 6.22983C7.48236 6.57283 6.79336 7.26183 6.45036 8.12983C5.93236 9.44283 6.04836 12.5708 6.04836 14.0258C6.04836 15.4808 5.93236 18.6058 6.45336 19.9228C6.79536 20.7908 7.48536 21.4808 8.35336 21.8228C9.66636 22.3408 12.7914 22.2248 14.2474 22.2248C15.7044 22.2248 18.8254 22.3448 20.1414 21.8228V21.8248ZM19.5854 9.88583L19.5824 9.88283C18.9224 9.88283 18.3854 9.34683 18.3854 8.68683C18.3854 8.02683 18.9214 7.49083 19.5824 7.49083C20.2424 7.49083 20.7784 8.02683 20.7784 8.68683V8.69183C20.7784 9.35083 20.2434 9.88483 19.5854 9.88583ZM14.2524 19.1518H14.2454C11.4164 19.1518 9.12036 16.8558 9.12036 14.0268C9.12036 11.1978 11.4164 8.90283 14.2454 8.90283C17.0744 8.90283 19.3704 11.1988 19.3704 14.0278V14.0338C19.3704 16.8598 17.0764 19.1538 14.2514 19.1538L14.2524 19.1518ZM14.2474 17.3608C16.0874 17.3608 17.5814 15.8668 17.5814 14.0268C17.5804 12.1868 16.0864 10.6938 14.2464 10.6928C12.4064 10.6938 10.9144 12.1868 10.9144 14.0268C10.9144 15.8668 12.4054 17.3618 14.2454 17.3618L14.2474 17.3608Z" fill="white"/>
</g>
<defs>
<clipPath id="clip0_2_1606">
<rect width="28" height="28" fill="white" transform="translate(0.245361 0.027832)"/>
</clipPath>
</defs>
</svg>
