<svg width="18" height="18" viewBox="0 0 18 18" fill="none" xmlns="http://www.w3.org/2000/svg">
<g clip-path="url(#clip0_2_1248)">
<path d="M9.09747 0.9729C4.40447 0.9729 0.605469 4.7809 0.605469 9.4729C0.605469 14.1649 4.40547 17.9729 9.09747 17.9729C13.7975 17.9729 17.6055 14.1649 17.6055 9.4729C17.6055 4.7809 13.7975 0.9729 9.09747 0.9729ZM14.9875 6.0729H12.4795C12.2075 5.0099 11.8165 3.9909 11.3065 3.0469C12.8705 3.5829 14.1715 4.6699 14.9875 6.0729ZM9.10547 2.7069C9.81147 3.7269 10.3635 4.8569 10.7285 6.0729H7.48247C7.84747 4.8579 8.40047 3.7269 9.10547 2.7069ZM2.52647 11.1729C2.39047 10.6289 2.30547 10.0589 2.30547 9.4729C2.30547 8.8859 2.39047 8.3169 2.52647 7.7729H5.39947C5.33147 8.3339 5.28047 8.8949 5.28047 9.4729C5.28047 10.0509 5.33147 10.6119 5.39947 11.1729H2.52647ZM3.22347 12.8729H5.73047C6.00247 13.9359 6.39347 14.9549 6.90347 15.8989C5.33947 15.3629 4.03947 14.2839 3.22347 12.8729ZM5.73047 6.0729H3.22347C4.03947 4.6619 5.33947 3.5829 6.90347 3.0469C6.39347 3.9909 6.00347 5.0099 5.73047 6.0729ZM9.10547 16.2389C8.40047 15.2189 7.84747 14.0889 7.48247 12.8729H10.7295C10.3635 14.0889 9.81147 15.2189 9.10547 16.2389ZM11.0945 11.1729H7.11647C7.03947 10.6119 6.98047 10.0509 6.98047 9.4729C6.98047 8.8949 7.04047 8.3259 7.11647 7.7729H11.0945C11.1705 8.3259 11.2305 8.8949 11.2305 9.4729C11.2305 10.0509 11.1705 10.6119 11.0945 11.1729ZM11.3065 15.8989C11.8165 14.9549 12.2075 13.9359 12.4795 12.8729H14.9875C14.1715 14.2749 12.8695 15.3629 11.3065 15.8989ZM12.8115 11.1729C12.8795 10.6119 12.9305 10.0509 12.9305 9.4729C12.9305 8.8949 12.8795 8.3339 12.8115 7.7729H15.6845C15.8205 8.3169 15.9055 8.8869 15.9055 9.4729C15.9055 10.0589 15.8205 10.6289 15.6845 11.1729H12.8115Z" fill="black"/>
</g>
<defs>
<clipPath id="clip0_2_1248">
<rect width="17" height="17" fill="white" transform="translate(0.605469 0.9729)"/>
</clipPath>
</defs>
</svg>
