<svg width="266" height="71" viewBox="0 0 266 71" fill="none" xmlns="http://www.w3.org/2000/svg">
<g clip-path="url(#clip0_2_1229)">
<path fill-rule="evenodd" clip-rule="evenodd" d="M0.245361 70.478H140.245V0.478027H0.245361V70.478Z" fill="black"/>
<path fill-rule="evenodd" clip-rule="evenodd" d="M11.6204 14.478H29.8314V22.883H22.5424V30.847H29.3644V38.837H22.5424V48.073H30.5584V56.478H11.6204V14.478ZM55.7164 14.478L51.8764 33.052L57.6614 56.478H47.5444C46.3344 52.291 45.2274 47.188 44.2244 41.173C43.9494 43.837 43.5644 46.656 43.0714 49.63L42.0444 56.478H31.4084L35.3774 33.052L31.4074 14.478H41.9674C42.1584 15.635 42.5374 17.562 43.1044 20.261C43.5624 22.317 43.9354 24.212 44.2244 25.944L46.5574 14.478H55.7164Z" fill="#FFCA05"/>
<path fill-rule="evenodd" clip-rule="evenodd" d="M81.1884 14.478L77.3484 33.052L83.1354 56.478H73.0164C71.8084 52.291 70.7004 47.188 69.6964 41.173C69.4224 43.837 69.0384 46.656 68.5444 49.63L67.5174 56.478H56.8814L60.8504 33.052L56.8804 14.478H67.4404C67.6304 15.635 68.0104 17.562 68.5784 20.261C69.0354 22.317 69.4084 24.212 69.6964 25.944L72.0304 14.478H81.1884ZM83.7154 14.478H101.926V22.883H94.6364V30.847H101.459V38.837H94.6364V48.073H102.653V56.478H83.7154V14.478ZM128.985 14.478V56.478H119.412L113.731 37.385V56.478H104.599V14.478H113.731L119.853 33.39V14.478H128.985Z" fill="#FFCA05"/>
<path fill-rule="evenodd" clip-rule="evenodd" d="M87.7704 38.66H94.5354V30.707H87.7704V38.66Z" fill="black"/>
<path fill-rule="evenodd" clip-rule="evenodd" d="M154.78 21.7931H152.553V19.5211H159.476V21.7931H157.231V32.1801H154.78V21.7931ZM164.303 20.4601C164.303 19.7651 164.827 19.2581 165.444 19.2581C166.062 19.2581 166.549 19.7461 166.549 20.4601C166.549 21.1551 166.081 21.6621 165.444 21.6621C164.808 21.6621 164.304 21.1551 164.304 20.4601H164.303ZM160.991 20.4601C160.991 19.7651 161.496 19.2581 162.114 19.2581C162.75 19.2581 163.237 19.7461 163.237 20.4601C163.237 21.1551 162.769 21.6621 162.114 21.6621C161.496 21.6621 160.991 21.1551 160.991 20.4601ZM167.054 29.3811C167.054 30.3581 167.091 31.3161 167.129 32.1801H165.014L164.884 31.2031H164.845C164.415 31.8231 163.666 32.3301 162.73 32.3301C160.99 32.3301 160.28 31.0341 160.28 28.5551V22.9951H162.75V28.2921C162.75 29.4941 162.974 30.2641 163.666 30.2641C164.078 30.2641 164.34 29.9441 164.452 29.6441C164.546 29.4561 164.602 29.1741 164.602 28.8551V22.9951H167.052V29.3811H167.054ZM169.168 25.7561C169.168 24.8361 169.13 23.8411 169.093 22.9961H171.226L171.357 24.3291H171.413C171.825 23.3521 172.555 22.8451 173.228 22.8451C173.472 22.8451 173.603 22.8451 173.752 22.8831V25.3251C173.602 25.2871 173.434 25.2871 173.228 25.2871C172.704 25.2871 172.012 25.6441 171.732 26.6011C171.675 26.8081 171.638 27.1271 171.638 27.5211V32.1791H169.168V25.7561ZM177.495 27.0151H177.532C177.7 26.4891 177.831 26.1131 177.999 25.7381L179.179 22.9951H181.817L179.609 26.8451L181.947 32.1801H179.216L177.906 28.4041L177.494 29.1941V32.1801H175.043V19.1831H177.494L177.495 27.0151ZM183.07 32.1801H185.521V22.9951H183.071L183.07 32.1801ZM185.521 20.5541C185.541 21.3431 184.979 21.8881 184.231 21.8881C183.557 21.8881 182.995 21.3431 183.014 20.5541C182.995 19.7281 183.594 19.2211 184.268 19.2211C184.978 19.2211 185.521 19.7281 185.521 20.5541ZM189.488 22.9951L190.386 27.7661C190.48 28.3101 190.555 28.8181 190.629 29.3061H190.667C190.742 28.8361 190.817 28.3101 190.891 27.8031L191.659 22.9951H194.054L192.183 30.0761C191.733 31.8041 191.134 33.5881 190.143 34.7711C189.376 35.6731 188.44 36.1051 188.066 36.2171L187.317 34.0951C187.747 33.9451 188.16 33.6631 188.534 33.3251C188.87 33.0051 189.132 32.6301 189.301 32.2351C189.376 32.0671 189.431 31.9731 189.431 31.8421C189.431 31.7291 189.395 31.6161 189.357 31.5031L186.85 22.9951H189.488ZM199.274 26.7331C199.274 25.5501 198.974 24.6301 198.244 24.6301C197.44 24.6301 197.122 25.8131 197.104 26.7331H199.274ZM197.084 28.4611C197.122 29.8881 197.946 30.4141 199.031 30.4141C199.723 30.4141 200.341 30.2641 200.771 30.1141L201.108 31.8791C200.471 32.1231 199.518 32.2921 198.582 32.2921C196.092 32.2921 194.727 30.6401 194.727 27.7661C194.727 24.6861 196.317 22.8461 198.395 22.8461C200.359 22.8461 201.501 24.4041 201.501 27.1841C201.501 27.8411 201.481 28.1981 201.426 28.4611H197.084ZM205.729 19.3711C205.205 21.0611 204.419 22.7511 203.615 24.1041L202.361 24.2731C202.904 22.7131 203.409 21.0051 203.615 19.5211L205.729 19.3711ZM205.766 25.7561C205.766 24.7421 205.71 23.8601 205.691 22.9961H207.806L207.918 24.0471H207.956C208.442 23.3151 209.228 22.8451 210.182 22.8451C211.922 22.8451 212.615 24.2351 212.615 26.2821V32.1791H210.163V26.4321C210.163 25.6441 209.976 24.9121 209.265 24.9121C208.853 24.9121 208.517 25.1921 208.348 25.7381C208.274 25.9251 208.218 26.2261 208.218 26.5831V32.1781H205.765L205.766 25.7561ZM214.71 32.1801H217.161V22.9951H214.71V32.1801ZM217.161 20.5541C217.18 21.3431 216.619 21.8881 215.87 21.8881C215.196 21.8881 214.635 21.3431 214.654 20.5541C214.635 19.7281 215.234 19.2211 215.907 19.2211C216.619 19.2211 217.161 19.7281 217.161 20.5541ZM219.257 25.7561C219.257 24.7421 219.2 23.8601 219.182 22.9961H221.296L221.408 24.0471H221.446C221.933 23.3151 222.718 22.8451 223.672 22.8451C225.412 22.8451 226.105 24.2351 226.105 26.2821V32.1791H223.654V26.4321C223.654 25.6441 223.467 24.9121 222.756 24.9121C222.344 24.9121 222.007 25.1921 221.839 25.7381C221.764 25.9251 221.708 26.2261 221.708 26.5831V32.1781H219.257V25.7561ZM155.329 48.6571C155.442 48.6941 155.629 48.6941 155.759 48.6941C156.939 48.6941 157.967 47.5301 157.967 44.0371C157.967 41.4451 157.294 39.8671 155.816 39.8671C155.647 39.8671 155.479 39.8671 155.329 39.9231V48.6571ZM152.879 38.1381C153.495 37.9881 154.394 37.8941 155.367 37.8941C156.957 37.8941 158.061 38.2701 158.866 39.0211C159.951 39.9981 160.512 41.6691 160.512 44.1291C160.512 46.6841 159.857 48.5061 158.753 49.4821C157.912 50.3081 156.658 50.7031 154.899 50.7031C154.132 50.7031 153.365 50.6281 152.879 50.5711V38.1381ZM162.345 50.6101H164.797V41.4261H162.345V50.6101ZM164.797 38.9841C164.816 39.7741 164.254 40.3181 163.506 40.3181C162.832 40.3181 162.271 39.7731 162.289 38.9841C162.271 38.1581 162.869 37.6511 163.543 37.6511C164.254 37.6511 164.797 38.1581 164.797 38.9841ZM169.4 38.9851C169.4 39.7731 168.838 40.3181 168.108 40.3181C167.435 40.3181 166.874 39.7731 166.892 38.9851C166.874 38.1581 167.454 37.6511 168.146 37.6511C168.838 37.6511 169.4 38.1581 169.4 38.9851ZM165.302 52.4131C165.732 52.3571 166.2 52.2631 166.499 51.9251C166.855 51.5491 166.911 50.8921 166.911 49.4831V41.4261H169.381V49.9521C169.381 52.0001 168.951 52.9581 168.165 53.5771C167.491 54.1221 166.368 54.3671 165.489 54.3671L165.302 52.4131ZM171.457 50.6101H173.909V41.4261H171.457V50.6101ZM173.909 38.9841C173.928 39.7741 173.366 40.3181 172.618 40.3181C171.944 40.3181 171.383 39.7731 171.401 38.9841C171.383 38.1581 171.981 37.6511 172.655 37.6511C173.366 37.6511 173.909 38.1581 173.909 38.9841ZM178.885 38.9471V41.4261H180.682V43.1731H178.886V47.3611C178.886 48.4311 179.335 48.6941 179.822 48.6941C180.065 48.6941 180.252 48.6761 180.458 48.6381L180.476 50.5541C180.14 50.6471 179.634 50.7231 178.979 50.7231C178.269 50.7231 177.651 50.5531 177.22 50.1401C176.715 49.6521 176.435 48.9571 176.435 47.5111V43.1731H175.35V41.4261H176.435V39.5281L178.885 38.9471ZM185.958 46.1401C185.135 46.1591 184.012 46.4221 184.012 47.6991C184.012 48.6191 184.518 48.9571 184.892 48.9571C185.285 48.9571 185.734 48.7131 185.902 48.1681C185.94 48.0371 185.958 47.8871 185.958 47.7361V46.1401ZM186.295 50.6101L186.165 49.7091H186.127C185.622 50.4221 184.911 50.7601 184.106 50.7601C182.721 50.7601 181.692 49.5961 181.692 47.9621C181.692 45.5581 183.807 44.5621 185.884 44.5441V44.3371C185.884 43.6231 185.454 43.0971 184.593 43.0971C183.863 43.0971 183.264 43.2861 182.721 43.6231L182.272 41.9711C182.777 41.6701 183.844 41.2761 185.116 41.2761C187.905 41.2761 188.353 43.2291 188.353 45.0881V48.5071C188.353 49.2391 188.391 49.9901 188.503 50.6101H186.295ZM190.093 50.6101H192.545V37.6131H190.093V50.6101ZM200.702 43.8861C200.815 43.9241 200.946 43.9241 201.095 43.9241C202.33 43.9241 202.892 43.0411 202.892 41.8581C202.892 40.7501 202.442 39.8861 201.302 39.8861C201.077 39.8861 200.852 39.9231 200.702 39.9801V43.8861ZM198.252 38.1391C198.944 37.9891 199.879 37.8951 200.815 37.8951C202.275 37.8951 203.415 38.1021 204.239 38.8721C204.987 39.5291 205.324 40.5811 205.324 41.6521C205.324 43.0221 204.912 43.9801 204.258 44.6941C203.472 45.5201 202.2 45.8961 201.188 45.8961H200.702V50.6101H198.252V38.1401V38.1391ZM206.577 50.6101H209.029V37.6131H206.577V50.6101ZM214.922 46.1401C214.099 46.1591 212.976 46.4221 212.976 47.6991C212.976 48.6191 213.482 48.9571 213.856 48.9571C214.249 48.9571 214.698 48.7131 214.866 48.1681C214.904 48.0371 214.922 47.8871 214.922 47.7361V46.1401ZM215.259 50.6101L215.129 49.7091H215.091C214.586 50.4221 213.875 50.7601 213.07 50.7601C211.685 50.7601 210.656 49.5961 210.656 47.9621C210.656 45.5581 212.771 44.5621 214.848 44.5441V44.3371C214.848 43.6231 214.418 43.0971 213.556 43.0971C212.826 43.0971 212.228 43.2861 211.686 43.6231L211.236 41.9711C211.741 41.6701 212.808 41.2761 214.08 41.2761C216.869 41.2761 217.318 43.2291 217.318 45.0881V48.5071C217.318 49.2391 217.355 49.9901 217.468 50.6101H215.259ZM222.126 38.9471V41.4261H223.922V43.1731H222.126V47.3611C222.126 48.4311 222.576 48.6941 223.062 48.6941C223.305 48.6941 223.492 48.6761 223.698 48.6381L223.717 50.5541C223.38 50.6471 222.875 50.7231 222.22 50.7231C221.509 50.7231 220.891 50.5531 220.46 50.1401C219.956 49.6521 219.675 48.9571 219.675 47.5111V43.1731H218.59V41.4261H219.675V39.5281L222.126 38.9471ZM225.868 50.6101V43.1731H224.633V41.4261H225.868V41.0501C225.868 40.0171 226.074 39.0601 226.804 38.3081C227.347 37.7451 228.132 37.4631 228.993 37.4631C229.629 37.4631 230.116 37.5571 230.471 37.6701L230.191 39.5861C230.003 39.5101 229.741 39.4731 229.442 39.4731C228.619 39.4731 228.319 40.1861 228.319 40.9941V41.4261H229.909V43.1731H228.319V50.6101H225.868ZM233.128 45.9901C233.128 47.5671 233.372 48.8821 234.251 48.8821C235.037 48.8821 235.243 47.3421 235.243 45.9901C235.243 44.7311 235.037 43.1351 234.213 43.1351C233.315 43.1351 233.128 44.7311 233.128 45.9901ZM237.694 45.9901C237.694 49.8211 235.579 50.7601 234.194 50.7601C232.005 50.7601 230.696 49.0321 230.696 46.0461C230.696 42.7401 232.417 41.2761 234.232 41.2761C236.384 41.2761 237.694 43.0981 237.694 45.9901ZM239.434 44.1871C239.434 43.2671 239.396 42.2711 239.359 41.4261H241.492L241.622 42.7591H241.679C242.091 41.7831 242.82 41.2761 243.494 41.2761C243.737 41.2761 243.869 41.2761 244.018 41.3131V43.7551C243.868 43.7171 243.7 43.7171 243.494 43.7171C242.97 43.7171 242.278 44.0741 241.997 45.0321C241.941 45.2391 241.903 45.5581 241.903 45.9521V50.6101H239.433L239.434 44.1871ZM245.327 44.1871C245.327 43.1731 245.271 42.2901 245.253 41.4261H247.386L247.498 42.4961H247.536C248.003 41.8021 248.77 41.2761 249.725 41.2761C250.754 41.2761 251.409 41.7461 251.727 42.5161H251.764C251.989 42.1591 252.326 41.8201 252.681 41.5951C253.055 41.3881 253.504 41.2751 253.972 41.2751C255.6 41.2751 256.33 42.5721 256.33 44.7881V50.6101H253.897V45.2001C253.897 44.1501 253.785 43.3041 253.037 43.3041C252.607 43.3041 252.288 43.6041 252.12 44.1491C252.082 44.2811 252.045 44.5441 252.045 44.7881V50.6101H249.612V44.8441C249.612 44.1871 249.538 43.3041 248.77 43.3041C248.396 43.3041 248.022 43.5861 247.854 44.1301C247.797 44.3001 247.76 44.5621 247.76 44.8251V50.6101H245.327V44.1871ZM265.124 47.8121C265.124 48.7881 265.161 49.7461 265.199 50.6101H263.084L262.954 49.6331H262.916C262.486 50.2531 261.737 50.7601 260.802 50.7601C259.062 50.7601 258.35 49.4641 258.35 46.9851V41.4251H260.82V46.7221C260.82 47.9241 261.045 48.6941 261.737 48.6941C262.149 48.6941 262.411 48.3741 262.523 48.0741C262.616 47.8871 262.673 47.6051 262.673 47.2861V41.4261H265.123L265.124 47.8121Z" fill="black"/>
</g>
<defs>
<clipPath id="clip0_2_1229">
<rect width="265" height="70" fill="white" transform="translate(0.245361 0.478027)"/>
</clipPath>
</defs>
</svg>
