<svg width="29" height="29" viewBox="0 0 29 29" fill="none" xmlns="http://www.w3.org/2000/svg">
<g clip-path="url(#clip0_2_1634)">
<path d="M25.2454 0.027832C26.9014 0.027832 28.2454 1.37183 28.2454 3.02783V25.0278C28.2454 26.6838 26.9014 28.0278 25.2454 28.0278H3.24536C1.58936 28.0278 0.245361 26.6838 0.245361 25.0278V3.02783C0.245361 1.37183 1.58936 0.027832 3.24536 0.027832H25.2454ZM18.5934 4.01983H15.2534V17.6708C15.2534 19.2808 13.9834 20.5868 12.4214 20.5868C10.8574 20.5868 9.58836 19.2808 9.58836 17.6718C9.58836 16.0618 10.8584 14.7558 12.4214 14.7558C12.7174 14.7558 13.0024 14.8028 13.2714 14.8898V11.3778C12.9914 11.3378 12.7134 11.3178 12.4234 11.3178C9.01836 11.3178 6.25336 14.1628 6.25336 17.6678C6.25336 21.1738 9.01836 24.0198 12.4234 24.0198C15.8284 24.0198 18.5924 21.1748 18.5934 17.6708V10.6878C19.8994 11.6498 21.5064 12.2218 23.2334 12.2218H23.2534V8.80683L23.2474 8.80483C22.3104 8.80483 21.4374 8.51483 20.7104 8.01983C19.6584 7.32283 18.9024 6.19783 18.6644 4.88583C18.6174 4.61583 18.5934 4.34283 18.5934 4.05883V4.01883V4.01983Z" fill="white"/>
</g>
<defs>
<clipPath id="clip0_2_1634">
<rect width="28" height="28" fill="white" transform="translate(0.245361 0.027832)"/>
</clipPath>
</defs>
</svg>
