<svg width="29" height="29" viewBox="0 0 29 29" fill="none" xmlns="http://www.w3.org/2000/svg">
<g clip-path="url(#clip0_2_1620)">
<path d="M25.2454 28.0278C26.9014 28.0278 28.2454 26.6838 28.2454 25.0278V3.02783C28.2454 1.37183 26.9014 0.027832 25.2454 0.027832H3.24536C1.58936 0.027832 0.245361 1.37183 0.245361 3.02783V25.0278C0.245361 26.6838 1.58936 28.0278 3.24536 28.0278H25.2454ZM10.5394 22.1468C8.21436 22.1468 6.05736 21.4718 4.24536 20.3088C4.57636 20.3468 4.89536 20.3588 5.23236 20.3588C7.15236 20.3588 8.91436 19.7088 10.3204 18.6088C8.52036 18.5718 7.00736 17.3908 6.48936 15.7658C7.12036 15.8588 7.68936 15.8588 8.33936 15.6908C6.46436 15.3088 5.05736 13.6588 5.05736 11.6658V11.6158C5.60136 11.9218 6.23936 12.1088 6.90736 12.1338C5.80536 11.4008 5.07836 10.1478 5.07836 8.72583C5.07836 8.72383 5.08336 8.72383 5.08336 8.72183C5.08336 7.95883 5.28336 7.25883 5.63936 6.65283C7.65736 9.14083 10.6894 10.7658 14.0894 10.9408C13.5074 8.15883 15.5894 5.90283 18.0894 5.90283C19.2704 5.90283 20.3324 6.39683 21.0824 7.19683C22.0074 7.02183 22.8954 6.67783 23.6824 6.20883C23.3764 7.15883 22.7324 7.95883 21.8824 8.46583C22.7074 8.37783 23.5074 8.14583 24.2454 7.82783C23.6894 8.64683 22.9894 9.37183 22.1894 9.95283C22.2014 10.1278 22.2014 10.3088 22.2014 10.4838C22.2014 15.9028 18.0764 22.1468 10.5394 22.1468Z" fill="white"/>
</g>
<defs>
<clipPath id="clip0_2_1620">
<rect width="28" height="28" fill="white" transform="translate(0.245361 0.027832)"/>
</clipPath>
</defs>
</svg>
