<svg width="29" height="29" viewBox="0 0 29 29" fill="none" xmlns="http://www.w3.org/2000/svg">
<g clip-path="url(#clip0_2_1627)">
<path d="M25.2454 28.0278C26.9014 28.0278 28.2454 26.6838 28.2454 25.0278V3.02783C28.2454 1.37183 26.9014 0.027832 25.2454 0.027832H3.24536C1.58936 0.027832 0.245361 1.37183 0.245361 3.02783V25.0278C0.245361 26.6838 1.58936 28.0278 3.24536 28.0278H25.2454ZM14.2554 22.0278H14.2454H13.9984C12.7294 22.0218 6.93036 21.9748 5.35836 21.5528C4.37636 21.2908 3.60836 20.5468 3.34536 19.5588C2.92936 17.9948 2.87736 14.9478 2.87136 14.2098L2.87036 14.0578V13.8828C2.87736 13.1438 2.93036 10.0928 3.34536 8.53383C3.60736 7.54683 4.37636 6.77183 5.35736 6.50883C6.93036 6.08183 12.7294 6.03383 13.9984 6.02883H14.4924C15.7614 6.03383 21.5604 6.08183 23.1324 6.50883C24.1144 6.77183 24.8824 7.54683 25.1454 8.53383C25.5614 10.0978 25.6134 13.1458 25.6194 13.8838V14.2098C25.6134 14.9478 25.5614 17.9938 25.1454 19.5528C24.8824 20.5408 24.1144 21.2838 23.1324 21.5468C21.5604 21.9748 15.7614 22.0218 14.4924 22.0268L14.2864 22.0278H14.2564H14.2554ZM11.9204 17.4218L17.8704 14.0408L11.9204 10.6588V17.4218Z" fill="white"/>
</g>
<defs>
<clipPath id="clip0_2_1627">
<rect width="28" height="28" fill="white" transform="translate(0.245361 0.027832)"/>
</clipPath>
</defs>
</svg>
